# xmcd
#
# Track frame offsets:
#	150
#	26280
#	54280
#	87270
#	116410
#	154165
#	174190
#	188100
#	206220
#	233890
#
# Disc length: 3663 seconds
#
# Revision: 1
# Processed by: cddbd v1.4PL0 Copyright (c) Steve Scherf et al.
# Submitted via: CDmax 2.0
#
DISCID=750e4d0a
DTITLE=Hot Tuna - Live in Minneapolis, MN 12.15.02 - d2
DYEAR=2002
DGENRE=Blues
TTITLE0=Trial by Fire
TTITLE1=San Francisco Bay Blues
TTITLE2=I See the Light
TTITLE3=Uncle Sam Blues
TTITLE4=99 Year Blues
TTITLE5=I am the Light of This World
TTITLE6=A Life Well Lived
TTITLE7=What Are They Doing in Heaven Today?
TTITLE8=That'll Never Happen No More
TTITLE9=Water Song
EXTD=Hot Tuna\n12-15-02\nCedar Cultural Center\nMinneapolis, MN \n\nSource: \
EXTD=t\t(ORTF, DFC/30') ADK A-51s LE > Lunatec V2 > AD1000 > D8\n\nConversion
EXTD=:\tDAT > Soundforge 4.0 (add fades) > CD Wave > Flac (Level 7]\n\t\tReco
EXTD=rded/Converted by Eric Swanson, whompinjack@yahoo.com\n\nDisc #1\n01. Bi
EXTD=g River Blues\n02. How Long Blues\n03. New Song (For The Morning]\n04
EXTD=I Know You Rider\n05. Death Don't Have No Mercy\n06. Do Not Go Gentle\
EXTD=n07. Serpent of Dreams\n08. Third Week in Chelsea\n09. Waiting for a Tra
EXTD=in\n10. Blue Railroad Train\n11. Living in the Moment\n12. Embryonic Jou
EXTD=rney\n13. Good Shepherd\n\nDisc #2\n01. Trial by Fire\n02. San Francisc
EXTD=o Bay Blues\n03. I See the Light \n04. Uncle Sam Blues\n05. 99 Year Blue
EXTD=s\n06. I am the Light of This World\n07. A Life Well Lived\n08. What Ar
EXTD=e They Doing in Heaven Today?\n09. That'll Never Happen No More\nEncore:
EXTD=\n10. Water Song
EXTT0=
EXTT1=
EXTT2=
EXTT3=
EXTT4=
EXTT5=
EXTT6=
EXTT7=
EXTT8=
EXTT9=
PLAYORDER=
